Coordinates
version=1
nRows=21
nColumns=22
inDegrees=yes

Units are S.I. units (second, meters, Newtons, ...)
If the header above contains a line with 'inDegrees', this indicates whether rotational values are in degrees (yes) or radians (no).

endheader
time	pelvis_tilt	pelvis_list	pelvis_rotation	pelvis_tx	pelvis_ty	pelvis_tz	hip_flexion_r	hip_adduction_r	hip_rotation_r	knee_angle_r	ankle_angle_r	subtalar_angle_r	hip_flexion_l	hip_adduction_l	hip_rotation_l	knee_angle_l	ankle_angle_l	subtalar_angle_l	lumbar_extension	lumbar_bending	lumbar_rotation
      2.80000000	      1.21413255	      4.87693454	     -1.13103982	     -0.05110442	      1.07360101	     -0.36939827	      2.97857944	     -5.27438446	      3.96454041	    -44.37033452	     10.92664084	     11.48777729	      9.55107125	      6.31896337	     -1.89956777	    -13.72662648	      5.39542265	     -3.63289020	     -7.32975298	     -7.59732236	     -3.62892003
      2.81000000	      1.04603572	      4.98457700	     -1.19773832	     -0.05921283	      1.07259075	     -0.36803710	      2.41425765	     -5.09478167	      4.56801673	    -43.98085032	     10.70371877	     11.61991710	     10.13756466	      6.31243754	     -2.00113386	    -13.58840955	      4.93841575	     -3.49710081	     -7.10617140	     -7.71955877	     -3.35377511
      2.82000000	      0.86418572	      5.08334068	     -1.27260639	     -0.06753344	      1.07150590	     -0.36659235	      1.90274335	     -4.89681028	      5.18725575	    -43.50298766	     10.46648396	     11.62941638	     10.74235360	      6.28690210	     -2.11794826	    -13.43386334	      4.46008354	     -3.34470605	     -6.88991070	     -7.83019999	     -3.09115623
      2.83000000	      0.67436602	      5.17491536	     -1.35104462	     -0.07608102	      1.07035072	     -0.36506858	      1.43701705	     -4.68442570	      5.81039265	    -42.92341113	     10.20882513	     11.47961456	     11.35744106	      6.24585267	     -2.24460263	    -13.25778860	      3.96735916	     -3.17838563	     -6.69028253	     -7.93172122	     -2.85683933
      2.84000000	      0.47343147	      5.25662866	     -1.42173399	     -0.08486903	      1.06911591	     -0.36347787	      1.01756305	     -4.46334967	      6.39850821	    -42.22595879	      9.99062165	     11.04552708	     11.99800774	      6.18729976	     -2.37581967	    -13.08358985	      3.45007447	     -2.95925182	     -6.50835745	     -8.02450506	     -2.65520020
      2.85000000	      0.28594677	      5.33442563	     -1.47203103	     -0.09384243	      1.06784532	     -0.36189232	      0.61275342	     -4.25593659	      6.91422944	    -41.39672278	      9.81341401	     10.38760619	     12.61138320	      6.12778691	     -2.48753912	    -12.86623225	      2.92746563	     -2.73265902	     -6.36931819	     -8.10166860	     -2.50693650
      2.86000000	      0.11084809	      5.40833363	     -1.51051681	     -0.10304054	      1.06652570	     -0.36027839	      0.23825316	     -4.06771001	      7.34606736	    -40.45091783	      9.76925239	      9.52926376	     13.21748495	      6.06356482	     -2.58943956	    -12.63780657	      2.40646285	     -2.47542503	     -6.27769795	     -8.17140898	     -2.40079186
      2.87000000	     -0.05827807	      5.47759208	     -1.52853453	     -0.11244929	      1.06515263	     -0.35866578	     -0.09086949	     -3.90907516	      7.65298174	    -39.40531367	      9.94134149	      8.47751863	     13.82379124	      5.99666304	     -2.67835054	    -12.40150002	      1.90136830	     -2.16143144	     -6.22646660	     -8.22998252	     -2.34443625
      2.88000000	     -0.22231928	      5.53378878	     -1.51488139	     -0.12205805	      1.06373378	     -0.35709719	     -0.36407459	     -3.78474283	      7.77295163	    -38.28506005	     10.41695437	      7.25143773	     14.43915441	      5.92193562	     -2.75211389	    -12.17505769	      1.44335053	     -1.76763178	     -6.21542918	     -8.26270189	     -2.33867374
      2.89000000	     -0.37909166	      5.56586950	     -1.47623958	     -0.13185658	      1.06229145	     -0.35555222	     -0.57050943	     -3.68009752	      7.69609323	    -37.12594421	     11.19658024	      5.91490702	     15.06978998	      5.82508976	     -2.82706012	    -11.97913400	      1.07254502	     -1.28788570	     -6.24514070	     -8.26000655	     -2.37925444
      2.90000000	     -0.52757107	      5.55509758	     -1.41486544	     -0.14183448	      1.06086499	     -0.35402004	     -0.70144599	     -3.56936883	      7.40780994	    -35.96464591	     12.21934899	      4.49777246	     15.71573730	      5.68583065	     -2.90442811	    -11.81974314	      0.80734918	     -0.71586485	     -6.31646920	     -8.20385677	     -2.44235794
      2.91000000	     -0.66561988	      5.49735979	     -1.32445797	     -0.15196574	      1.05949038	     -0.35250660	     -0.75725088	     -3.43826922	      6.90257224	    -34.83217629	     13.40389472	      3.03740647	     16.37495167	      5.50309391	     -2.97330722	    -11.70417511	      0.69099922	     -0.07342563	     -6.42870849	     -8.09031519	     -2.53325551
      2.92000000	     -0.78642569	      5.38124886	     -1.20924492	     -0.16221701	      1.05821583	     -0.35099147	     -0.74954422	     -3.26159319	      6.20616086	    -33.74525917	     14.63601138	      1.56862198	     17.04045451	      5.26377923	     -3.04863311	    -11.63984395	      0.76115609	      0.60072901	     -6.58278004	     -7.91023896	     -2.64641326
      2.93000000	     -0.88559372	      5.21716753	     -1.11043345	     -0.17253958	      1.05707817	     -0.34940006	     -0.68258987	     -3.03623443	      5.40694416	    -32.72352489	     15.84075441	      0.09901506	     17.69201403	      4.96566123	     -3.19436400	    -11.60332593	      1.04741208	      1.28054080	     -6.76995625	     -7.68298155	     -2.73999611
      2.94000000	     -0.96089975	      4.99478388	     -0.98008089	     -0.18293251	      1.05610355	     -0.34782326	     -0.57062424	     -2.75187773	      4.47347974	    -31.77277871	     16.93526552	     -1.27121088	     18.33385675	      4.61722810	     -3.34243089	    -11.61080355	      1.52534764	      1.86317993	     -6.99982742	     -7.39161202	     -2.85334245
      2.95000000	     -1.00803413	      4.71288705	     -0.83700165	     -0.19336199	      1.05531197	     -0.34623381	     -0.43027678	     -2.39863695	      3.49528314	    -30.88740346	     17.89038567	     -2.47772152	     18.94678503	      4.21442204	     -3.50608052	    -11.63928027	      2.18394293	      2.28253392	     -7.26746967	     -7.03497842	     -2.97889932
      2.96000000	     -1.03420632	      4.44791381	     -0.74332865	     -0.20376927	      1.05467171	     -0.34455995	     -0.24556216	     -2.05947436	      2.57421458	    -30.08992544	     18.71766317	     -3.60648935	     19.53079111	      3.81626345	     -3.77644486	    -11.68727008	      3.04676966	      2.57380193	     -7.54804897	     -6.71548381	     -3.02474219
      2.97000000	     -1.03395807	      4.15478932	     -0.66627215	     -0.21415619	      1.05420076	     -0.34286517	     -0.03683987	     -1.68565146	      1.72799196	    -29.36976454	     19.40038772	     -4.52892874	     20.06907207	      3.38990888	     -4.09592286	    -11.73864790	      4.00478356	      2.67884330	     -7.85360774	     -6.36838134	     -3.06628355
      2.98000000	     -1.01501649	      3.86773708	     -0.63137376	     -0.22448310	      1.05386924	     -0.34112747	      0.20325810	     -1.31456517	      1.01728860	    -28.73366347	     19.95844601	     -5.29573723	     20.56831114	      2.96128966	     -4.49880940	    -11.80752735	      5.00560232	      2.65109552	     -8.16774205	     -6.03990480	     -3.06716441
      2.99000000	     -0.96723508	      3.57952646	     -0.64370954	     -0.23472845	      1.05368808	     -0.33935170	      0.46115018	     -0.93808440	      0.47531896	    -28.18393183	     20.39766033	     -5.85744733	     21.01523901	      2.51990247	     -4.99005214	    -11.90782327	      5.96973645	      2.53142782	     -8.50251379	     -5.72180393	     -3.02360727
      3.00000000	     -0.92878226	      3.31126527	     -0.70633608	     -0.24483981	      1.05359136	     -0.33755088	      0.76434345	     -0.58098493	      0.10284604	    -27.70238148	     20.74927145	     -6.38362392	     21.46236312	      2.08021627	     -5.57916788	    -12.08791370	      6.80118774	      2.38645777	     -8.80367263	     -5.43668182	     -2.96176901
